<svg width="512" height="512" viewBox="0 0 512 512" fill="none" xmlns="http://www.w3.org/2000/svg">
<rect width="512" height="512" fill="white"/>
<path d="M0 0H512V512H0V0Z" fill="#CA0000"/>
<path fill-rule="evenodd" clip-rule="evenodd" d="M473 39H39V473H473V39ZM0 0V512H512V0H0Z" fill="black"/>
<path d="M353.526 411L315.733 313.578H192.696L155.113 411H119L239.098 102.777H271.222L390.479 411H353.526ZM305.025 281.874L269.122 185.082C268.282 182.562 266.882 178.433 264.923 172.694C263.103 166.955 261.214 161.007 259.254 154.848C257.294 148.689 255.685 143.72 254.425 139.94C253.025 145.679 251.485 151.418 249.806 157.157C248.266 162.756 246.726 168.005 245.187 172.904C243.647 177.663 242.317 181.723 241.197 185.082L204.664 281.874H305.025Z" fill="white"/>
</svg>
